# xmcd
#
# Track frame offsets: 
#        150
#        11347
#        22975
#        34420
#        45827
#        57740
#        69435
#        83990
#        95180
#        109747
#        121525
#        131085
#
# Disc length: 1867 seconds
#
# Revision: 8
# Processed by: cddbd v1.5.2PL0 Copyright (c) Steve Scherf et al.
# Submitted via: ExactAudioCopyFreeDBPlugin 1.0
#
DISCID=9907490c
DTITLE=Booker T. and the M.G.'s - Soul Dressing {2012,RE,EU,OAS,Rhino Re
DTITLE=cords,8122797254-2}
DYEAR=1965
DGENRE=Soul
TTITLE0=Soul Dressing
TTITLE1=Tic-Tac-Toe
TTITLE2=Big Train
TTITLE3=Jellybread
TTITLE4=Aw' Mercy
TTITLE5=Outrage
TTITLE6=Night Owl Walk
TTITLE7=Chinese Checkers
TTITLE8=Home Grown
TTITLE9=Mercy Mercy
TTITLE10=Plum Nellie
TTITLE11=Can't Be Still
EXTD=
EXTT0=
EXTT1=
EXTT2=
EXTT3=
EXTT4=
EXTT5=
EXTT6=
EXTT7=
EXTT8=
EXTT9=
EXTT10=
EXTT11=
PLAYORDER=
